<mxfile host="Electron" agent="Mozilla/5.0 (Windows NT 10.0; Win64; x64) AppleWebKit/537.36 (KHTML, like Gecko) draw.io/25.0.2 Chrome/128.0.6613.186 Electron/32.2.5 Safari/537.36" version="25.0.2">
  <diagram name="Page-1" id="OEWdrdRlLrYZWeYsEEm2">
    <mxGraphModel dx="709" dy="458" grid="1" gridSize="10" guides="1" tooltips="1" connect="1" arrows="1" fold="1" page="1" pageScale="1" pageWidth="850" pageHeight="1100" math="0" shadow="0">
      <root>
        <mxCell id="0" />
        <mxCell id="1" parent="0" />
        <mxCell id="MoofML_cmBFVWpvO62R--2" value="" style="endArrow=open;endSize=7;html=1;rounded=0;" edge="1" parent="1">
          <mxGeometry width="160" relative="1" as="geometry">
            <mxPoint x="450" y="300" as="sourcePoint" />
            <mxPoint x="600" y="300" as="targetPoint" />
          </mxGeometry>
        </mxCell>
        <mxCell id="MoofML_cmBFVWpvO62R--4" value="" style="html=1;verticalAlign=bottom;startArrow=oval;startFill=0;endArrow=open;startSize=11;endSize=7;curved=0;rounded=0;targetPerimeterSpacing=15;sourcePerimeterSpacing=19;jumpStyle=none;" edge="1" parent="1">
          <mxGeometry width="80" relative="1" as="geometry">
            <mxPoint x="450" y="360" as="sourcePoint" />
            <mxPoint x="600" y="360" as="targetPoint" />
          </mxGeometry>
        </mxCell>
        <mxCell id="MoofML_cmBFVWpvO62R--6" value="Symboles" style="swimlane;whiteSpace=wrap;html=1;" vertex="1" parent="1">
          <mxGeometry x="120" y="160" width="530" height="240" as="geometry" />
        </mxCell>
        <mxCell id="MoofML_cmBFVWpvO62R--1" value="&lt;font style=&quot;font-size: 16px;&quot;&gt;&amp;nbsp;Unit N&lt;font style=&quot;&quot;&gt;am&lt;/font&gt;e&lt;/font&gt;" style="rounded=0;whiteSpace=wrap;html=1;align=center;fillColor=none;" vertex="1" parent="MoofML_cmBFVWpvO62R--6">
          <mxGeometry x="320" y="40" width="150" height="40" as="geometry" />
        </mxCell>
        <mxCell id="MoofML_cmBFVWpvO62R--8" value="Unit are reprented as rectangles" style="text;html=1;align=center;verticalAlign=middle;whiteSpace=wrap;rounded=0;" vertex="1" parent="MoofML_cmBFVWpvO62R--6">
          <mxGeometry x="20" y="40" width="210" height="30" as="geometry" />
        </mxCell>
        <mxCell id="MoofML_cmBFVWpvO62R--9" value="To link between units we use simple arrow" style="text;html=1;align=center;verticalAlign=middle;whiteSpace=wrap;rounded=0;" vertex="1" parent="MoofML_cmBFVWpvO62R--6">
          <mxGeometry x="20" y="120" width="230" height="30" as="geometry" />
        </mxCell>
        <mxCell id="MoofML_cmBFVWpvO62R--11" value="Data Name" style="text;html=1;align=center;verticalAlign=middle;whiteSpace=wrap;rounded=0;" vertex="1" parent="MoofML_cmBFVWpvO62R--6">
          <mxGeometry x="370" y="170" width="80" height="30" as="geometry" />
        </mxCell>
        <mxCell id="MoofML_cmBFVWpvO62R--12" value="To represent data flow, use an arrow with an empty circle at the starting end and a pointed arrow at the other end, indicating the flow direction" style="text;html=1;align=left;verticalAlign=middle;whiteSpace=wrap;rounded=0;" vertex="1" parent="MoofML_cmBFVWpvO62R--6">
          <mxGeometry x="20" y="180" width="300" height="30" as="geometry" />
        </mxCell>
      </root>
    </mxGraphModel>
  </diagram>
</mxfile>
